<svg width="25" height="88" viewBox="0 0 25 88" fill="none" xmlns="http://www.w3.org/2000/svg">
<path d="M13.6077 82.3016C12.1349 82.3016 10.941 83.4955 10.941 84.9683C10.941 86.441 12.1349 87.6349 13.6077 87.6349C15.0804 87.6349 16.2743 86.441 16.2743 84.9683C16.2743 83.4955 15.0804 82.3016 13.6077 82.3016ZM13.1077 35.9683L13.1077 84.9683L14.1077 84.9683L14.1077 35.9683L13.1077 35.9683Z" fill="#DCDCDC"/>
<path d="M24.6582 12.8105C24.6582 19.438 19.2856 24.8105 12.6582 24.8105C6.03079 24.8105 0.658203 19.438 0.658203 12.8105C0.658203 6.18313 6.03079 0.810547 12.6582 0.810547C19.2856 0.810547 24.6582 6.18313 24.6582 12.8105ZM3.0582 12.8105C3.0582 18.1125 7.35627 22.4105 12.6582 22.4105C17.9601 22.4105 22.2582 18.1125 22.2582 12.8105C22.2582 7.50861 17.9601 3.21055 12.6582 3.21055C7.35627 3.21055 3.0582 7.50861 3.0582 12.8105Z" fill="#008FD5"/>
<circle cx="12.6582" cy="12.8105" r="7" fill="#008FD5"/>
</svg>
